<svg viewBox="0 0 1200 400" xmlns="http://www.w3.org/2000/svg">
  <defs>
    <pattern id="grid-vfd-maintenance-guide" width="42" height="42" patternUnits="userSpaceOnUse">
      <path d="M42 0H0V42" fill="none" stroke="#1f2f47" stroke-width="1"/>
    </pattern>
    <radialGradient id="glow-vfd-maintenance-guide" cx="15%" cy="35%" r="70%">
      <stop offset="0%" stop-color="rgba(14,165,233,0.28)"/>
      <stop offset="70%" stop-color="rgba(14,165,233,0)"/>
    </radialGradient>
  </defs>
  <rect width="1200" height="400" fill="#0B1220"/>
  <rect width="1200" height="400" fill="url(#grid-vfd-maintenance-guide)"/>
  <rect width="1200" height="400" fill="url(#glow-vfd-maintenance-guide)"/>

  <circle cx="88" cy="90" r="46" fill="#38bdf8" fill-opacity="0.14" stroke="#38bdf8" stroke-opacity="0.45" stroke-width="1.5"/>
  <g transform="translate(64,66)" stroke="#38bdf8" stroke-width="2.2" fill="none" stroke-linecap="round" stroke-linejoin="round">
    <rect x="4" y="4" width="16" height="16" rx="2"/><path d="M9 9h6v6H9z" stroke-linecap="round"/><path d="M4 9h1M4 15h1M19 9h1M19 15h1M9 4v1M15 4v1M9 19v1M15 19v1" stroke-linecap="round"/>
  </g>

  <text x="150" y="95" font-family="'Space Grotesk', 'Segoe UI', sans-serif" font-size="13" font-weight="700"
        letter-spacing="2" fill="#38bdf8">ELECTRICAL · VFD MAINTENANCE</text>

  <text y="170" font-family="'Space Grotesk', 'Segoe UI', sans-serif" font-size="46" font-weight="700" fill="#ffffff">
    <tspan x="150" dy="0">VFD</tspan><tspan x="150" dy="56">Maintenance Guide</tspan>
  </text>

  <text x="150" y="362" font-family="'JetBrains Mono', monospace" font-size="14" fill="#94a3b8">
    <tspan fill="#38bdf8" font-weight="700">Electro</tspan><tspan fill="#fbbf24" font-weight="700">Mech</tspan><tspan fill="#34d399" font-weight="700">Calc</tspan>
    <tspan fill="#64748b">  ·  electromechcalc.com</tspan>
  </text>

  <rect x="0" y="394" width="1200" height="6" fill="#38bdf8" fill-opacity="0.85"/>
</svg>